<svg xmlns="http://www.w3.org/2000/svg" xmlns:xlink="http://www.w3.org/1999/xlink" id="visual" width="900" height="600" version="1.1" viewBox="0 0 900 600"><rect width="900" height="600" x="0" y="0" fill="#FFF"/><path fill="#4facf7" d="M0 388L21.5 389.5C43 391 86 394 128.8 393.8C171.7 393.7 214.3 390.3 257.2 386.2C300 382 343 377 385.8 381.7C428.7 386.3 471.3 400.7 514.2 403.7C557 406.7 600 398.3 642.8 398.7C685.7 399 728.3 408 771.2 406C814 404 857 391 878.5 384.5L900 378L900 601L878.5 601C857 601 814 601 771.2 601C728.3 601 685.7 601 642.8 601C600 601 557 601 514.2 601C471.3 601 428.7 601 385.8 601C343 601 300 601 257.2 601C214.3 601 171.7 601 128.8 601C86 601 43 601 21.5 601L0 601Z"/><path fill="#89c0fa" d="M0 394L21.5 394.2C43 394.3 86 394.7 128.8 408.3C171.7 422 214.3 449 257.2 450.5C300 452 343 428 385.8 425.5C428.7 423 471.3 442 514.2 454C557 466 600 471 642.8 470.3C685.7 469.7 728.3 463.3 771.2 449.7C814 436 857 415 878.5 404.5L900 394L900 601L878.5 601C857 601 814 601 771.2 601C728.3 601 685.7 601 642.8 601C600 601 557 601 514.2 601C471.3 601 428.7 601 385.8 601C343 601 300 601 257.2 601C214.3 601 171.7 601 128.8 601C86 601 43 601 21.5 601L0 601Z"/><path fill="#b4d4fc" d="M0 461L21.5 463C43 465 86 469 128.8 468.2C171.7 467.3 214.3 461.7 257.2 461.3C300 461 343 466 385.8 463C428.7 460 471.3 449 514.2 452.2C557 455.3 600 472.7 642.8 478.2C685.7 483.7 728.3 477.3 771.2 471.7C814 466 857 461 878.5 458.5L900 456L900 601L878.5 601C857 601 814 601 771.2 601C728.3 601 685.7 601 642.8 601C600 601 557 601 514.2 601C471.3 601 428.7 601 385.8 601C343 601 300 601 257.2 601C214.3 601 171.7 601 128.8 601C86 601 43 601 21.5 601L0 601Z"/><path fill="#dbe9fe" d="M0 488L21.5 494C43 500 86 512 128.8 512.2C171.7 512.3 214.3 500.7 257.2 498.3C300 496 343 503 385.8 501.8C428.7 500.7 471.3 491.3 514.2 493.8C557 496.3 600 510.7 642.8 512.2C685.7 513.7 728.3 502.3 771.2 499.7C814 497 857 503 878.5 506L900 509L900 601L878.5 601C857 601 814 601 771.2 601C728.3 601 685.7 601 642.8 601C600 601 557 601 514.2 601C471.3 601 428.7 601 385.8 601C343 601 300 601 257.2 601C214.3 601 171.7 601 128.8 601C86 601 43 601 21.5 601L0 601Z"/><path fill="#fff" d="M0 573L21.5 566.7C43 560.3 86 547.7 128.8 542C171.7 536.3 214.3 537.7 257.2 538.8C300 540 343 541 385.8 542.7C428.7 544.3 471.3 546.7 514.2 544.3C557 542 600 535 642.8 533.8C685.7 532.7 728.3 537.3 771.2 538.8C814 540.3 857 538.7 878.5 537.8L900 537L900 601L878.5 601C857 601 814 601 771.2 601C728.3 601 685.7 601 642.8 601C600 601 557 601 514.2 601C471.3 601 428.7 601 385.8 601C343 601 300 601 257.2 601C214.3 601 171.7 601 128.8 601C86 601 43 601 21.5 601L0 601Z"/></svg>